<svg xmlns="http://www.w3.org/2000/svg" viewBox="4832.097 422.931 149.806 130.311">
  <defs>
    <style>
      .cls-1 {
        fill: #702530;
      }
    </style>
  </defs>
  <path class="cls-1" d="M110.764,0C91.782,0,80.6,13.236,74.9,22.881,69.26,13.236,58.075,0,39.093,0,16.828,0,0,17.9,0,41.607,0,68.336,24.626,89.165,58.64,118c4.207,3.54,8.568,7.285,13.082,11.133a4.986,4.986,0,0,0,3.181,1.18,5.478,5.478,0,0,0,1.283-.154,4.914,4.914,0,0,0,1.9-1.026c4.515-3.848,8.875-7.542,13.082-11.133C113.534,99.067,131.8,83.625,141.7,67.669a57.726,57.726,0,0,0,4.72-9.183c.308-.77.616-1.539.872-2.36a43.421,43.421,0,0,0,2.514-14.519C149.857,17.9,133.03,0,110.764,0Z" transform="translate(4832.097 422.931)"/>
</svg>
