<svg xmlns="http://www.w3.org/2000/svg" viewBox="861.789 353 196.487 53.566"><defs><style>.a{fill:#EF5068;}</style></defs><path class="a" d="M194.222,38.089a1,1,0,0,0-.962.682c-1.283,2-2.165,3.889-3.889,5.613-2.245,2.406-5.292,4.33-8.74,4.33-3.047,0-4.851-1.363-4.691-4.491l.08-.8c6.415-1.925,16.96-9.5,16.96-16.96,0-2.927-2.325-3.729-4.851-3.729-8.38,0-17.762,9.262-19.967,17.882a20.3,20.3,0,0,1-4.29,5.132c-1.924,1.483-4.09,1.8-5.453.762-.882-.682-1.283-2.085.241-5.212l5.693-12.389H167.2c1.884,0,3.568-2.446,3.969-4.049.16-.842.08-1.4-.521-1.4h-3.809l5.172-11.146c.521-1.123,0-1.724-.882-1.884-2-.281-5.814.762-7.177,3.528l-4.491,9.5h-1.123a3.527,3.527,0,0,0-2.766,1.2c-1.483,1.564-1.4,4.25-.281,4.25h1.4L151.2,40.535a20.394,20.394,0,0,1-4.37,5.252c-1.925,1.483-4.09,1.8-5.453.762-.882-.682-1.283-2.085.241-5.212l5.693-12.389h2.847c1.884,0,3.568-2.446,3.969-4.049.16-.842.08-1.4-.521-1.4H149.8l5.172-11.146c.521-1.123,0-1.724-.882-1.884-2-.281-5.814.762-7.177,3.528l-4.491,9.5h-.962a3.527,3.527,0,0,0-2.766,1.2c-1.483,1.564-1.4,4.25-.281,4.25h1.4l-5.533,11.467c-2.205,3.528-5.453,7.5-8.42,6.054-1.042-.441-1.363-2.085.08-5.212l7.658-17.2c.16-.441.241-.762-.241-.762h-5.292a.858.858,0,0,0-.762.521l-.361.682s-.441-1.644-3.448-1.644c-6.335-.08-13.672,6.936-17.481,14.113A27.221,27.221,0,0,0,103.69,43.1c-2,2.566-4.17,4.13-6.415,3.448-1.283-.361-1.363-1.8-.762-3.729,1.123-3.889,4.571-9.7,5.012-12.99.521-4.049-1.483-6.656-4.771-6.736s-6.134,1.724-8.3,3.969a4.653,4.653,0,0,0-4.691-3.889c-3.528-.08-5.894,1.564-8.46,4.17l1.283-2.927c.281-.6.08-1.123-.441-1.123H71.9c-.682,0-.882.16-1.042.6L63.316,40.014c-2.205,3.608-5.573,7.939-8.66,6.455-1.042-.441-1.363-2.085.08-5.212l7.658-17.2c.16-.441.241-.762-.241-.762H56.9a.858.858,0,0,0-.762.521l-.361.682s-.441-1.644-3.448-1.644c-6.375-.08-13.672,6.976-17.481,14.113a28.565,28.565,0,0,0-2.325,5.974c-2.205,2.766-4.731,4.491-6.736,3.649-1.884-.842-.361-3.649-.16-6.215.16-1.363-.16-3.568-3.528-4.25.682-.682,6.856-9.342,9.582-9.582.682-.08.962.241.962.521a1.853,1.853,0,0,1-1.123,1.363,4.185,4.185,0,0,0-2.766,3.288,2.351,2.351,0,0,0,2.325,2.766c3.127,0,5.533-3.448,5.292-6.656-.241-3.328-2.807-4.571-5.252-4.571a10.181,10.181,0,0,0-6.736,2.927c-3.288,2.887-5.453,6.936-7.177,7.137a1.248,1.248,0,0,1-1.123-.441C21.979,21.13,30.519,2.606,30.519,2.606,31.361.8,30.519,0,29.035,0,26.83.16,23.542,1.8,22.5,3.969L.007,51.842c-.16.361,0,.8.361.8H5.981a1.07,1.07,0,0,0,.882-.682L14.2,36.806a1.118,1.118,0,0,0,.682.962,5.415,5.415,0,0,0,2.686.08c.682,0,1.2.08,1.483.6.882,1.564-2.245,5.814-1.8,9.582.441,4.09,3.368,5.092,6.295,5.092a14.224,14.224,0,0,0,8.58-3.167,4.14,4.14,0,0,0,1.564,2.366,4.964,4.964,0,0,0,2.686.762c3.729,0,8.219-3.288,9.943-5.613A5.527,5.527,0,0,0,52.37,53.2,14.283,14.283,0,0,0,57.7,51.922l-.04.08c-.16.281-.241.682.441.682h5.814c.6,0,.762-.16.962-.682L71.455,38.57a58.457,58.457,0,0,1,3.568-6.215c1.8-2.446,3.568-4.25,5.012-3.649,1.363.441.882,3.649-.682,6.936l-7.618,16.2c-.241.441-.08.8.441.8H78.07c.682,0,.882-.521,1.042-.882.441-.962,6.054-13.231,6.054-13.231a41.122,41.122,0,0,1,3.368-6.295c1.724-2.686,3.368-4.17,4.491-3.649,1.283.6.762,3.288-.8,7.1l-2.766,6.575a13.043,13.043,0,0,0-1.123,4.851A5.425,5.425,0,0,0,92.5,52.8a10.86,10.86,0,0,0,2.325.281,13.67,13.67,0,0,0,8.42-3.167,4.041,4.041,0,0,0,1.564,2.325A4.869,4.869,0,0,0,107.5,53c3.729,0,8.219-3.288,9.943-5.613a5.527,5.527,0,0,0,6.054,5.733,14.544,14.544,0,0,0,9.061-3.689c.922,2.285,3.248,3.689,6.335,3.689a16.208,16.208,0,0,0,10.625-3.689c.922,2.285,3.248,3.689,6.335,3.689a16.059,16.059,0,0,0,12.269-5.252c1.483,3.969,5.453,5.693,10.064,5.693,5.453,0,10.906-1.925,14.514-6.134,1.283-1.564,3.729-4.691,3.729-6.816A2.458,2.458,0,0,0,194.222,38.089Zm-5.934-11.948a1.14,1.14,0,0,1,1.283,1.2c0,4.932-8.66,10.545-12.71,12.389C178.065,36.445,184.359,26.141,188.289,26.141ZM53.372,29.229,47.4,42.219c-1.4,3.047-4.41,3.969-6.134,3.448-.962-.281-1.483-1.283-1.483-2.766a18.21,18.21,0,0,1,2.085-7.1c3.208-6.575,7.778-9.342,10.384-9.342C53.533,26.462,54.134,27.5,53.372,29.229Zm71.207,0-5.974,12.99c-1.4,3.047-4.41,3.969-6.134,3.448-.962-.281-1.483-1.283-1.483-2.766a18.21,18.21,0,0,1,2.085-7.1c3.208-6.575,7.778-9.342,10.384-9.342C124.74,26.462,125.341,27.5,124.579,29.229Z" transform="translate(861.844 353)"/></svg>
